<mxfile host="Electron" modified="2023-08-08T20:33:07.430Z" agent="Mozilla/5.0 (Windows NT 10.0; Win64; x64) AppleWebKit/537.36 (KHTML, like Gecko) draw.io/21.6.5 Chrome/114.0.5735.243 Electron/25.3.1 Safari/537.36" etag="etloDtqZmtY9SGqgPv7D" version="21.6.5" type="device">
  <diagram name="Seite-1" id="wcERsfvFU4QK39I_Jb6p">
    <mxGraphModel dx="735" dy="433" grid="1" gridSize="10" guides="1" tooltips="1" connect="1" arrows="1" fold="1" page="1" pageScale="1" pageWidth="1169" pageHeight="827" math="0" shadow="0">
      <root>
        <mxCell id="0" />
        <mxCell id="1" parent="0" />
        <mxCell id="q96BogFGDi_03SNaMqHn-1" value="" style="rounded=1;whiteSpace=wrap;html=1;arcSize=0;" vertex="1" parent="1">
          <mxGeometry x="195" y="320" width="70" height="70" as="geometry" />
        </mxCell>
        <mxCell id="q96BogFGDi_03SNaMqHn-2" value="" style="rounded=1;whiteSpace=wrap;html=1;arcSize=0;" vertex="1" parent="1">
          <mxGeometry x="190" y="325" width="70" height="70" as="geometry" />
        </mxCell>
        <mxCell id="q96BogFGDi_03SNaMqHn-23" style="rounded=0;orthogonalLoop=1;jettySize=auto;html=1;" edge="1" parent="1" target="q96BogFGDi_03SNaMqHn-18">
          <mxGeometry relative="1" as="geometry">
            <mxPoint x="220" y="400" as="sourcePoint" />
          </mxGeometry>
        </mxCell>
        <mxCell id="q96BogFGDi_03SNaMqHn-3" value="Webseiten" style="rounded=1;whiteSpace=wrap;html=1;arcSize=0;" vertex="1" parent="1">
          <mxGeometry x="185" y="330" width="70" height="70" as="geometry" />
        </mxCell>
        <mxCell id="q96BogFGDi_03SNaMqHn-31" style="rounded=0;orthogonalLoop=1;jettySize=auto;html=1;" edge="1" parent="1" source="q96BogFGDi_03SNaMqHn-18">
          <mxGeometry relative="1" as="geometry">
            <mxPoint x="220" y="520" as="targetPoint" />
          </mxGeometry>
        </mxCell>
        <mxCell id="q96BogFGDi_03SNaMqHn-34" style="edgeStyle=orthogonalEdgeStyle;rounded=0;orthogonalLoop=1;jettySize=auto;html=1;dashed=1;strokeColor=#999999;" edge="1" parent="1" source="q96BogFGDi_03SNaMqHn-18" target="q96BogFGDi_03SNaMqHn-19">
          <mxGeometry relative="1" as="geometry" />
        </mxCell>
        <mxCell id="q96BogFGDi_03SNaMqHn-18" value="1. Gewinnung" style="rounded=0;whiteSpace=wrap;html=1;" vertex="1" parent="1">
          <mxGeometry x="160" y="440" width="120" height="40" as="geometry" />
        </mxCell>
        <mxCell id="q96BogFGDi_03SNaMqHn-32" style="rounded=0;orthogonalLoop=1;jettySize=auto;html=1;startArrow=classic;startFill=1;" edge="1" parent="1" source="q96BogFGDi_03SNaMqHn-19">
          <mxGeometry relative="1" as="geometry">
            <mxPoint x="380" y="520" as="targetPoint" />
          </mxGeometry>
        </mxCell>
        <mxCell id="q96BogFGDi_03SNaMqHn-35" style="edgeStyle=orthogonalEdgeStyle;rounded=0;orthogonalLoop=1;jettySize=auto;html=1;strokeColor=#999999;dashed=1;" edge="1" parent="1" source="q96BogFGDi_03SNaMqHn-19" target="q96BogFGDi_03SNaMqHn-26">
          <mxGeometry relative="1" as="geometry" />
        </mxCell>
        <mxCell id="q96BogFGDi_03SNaMqHn-19" value="2. Auswertung" style="rounded=0;whiteSpace=wrap;html=1;" vertex="1" parent="1">
          <mxGeometry x="320" y="440" width="120" height="40" as="geometry" />
        </mxCell>
        <mxCell id="q96BogFGDi_03SNaMqHn-29" style="rounded=0;orthogonalLoop=1;jettySize=auto;html=1;exitX=0.5;exitY=0;exitDx=0;exitDy=0;" edge="1" parent="1" source="q96BogFGDi_03SNaMqHn-26">
          <mxGeometry relative="1" as="geometry">
            <mxPoint x="540" y="400" as="targetPoint" />
          </mxGeometry>
        </mxCell>
        <mxCell id="q96BogFGDi_03SNaMqHn-33" style="rounded=0;orthogonalLoop=1;jettySize=auto;html=1;" edge="1" parent="1" target="q96BogFGDi_03SNaMqHn-26">
          <mxGeometry relative="1" as="geometry">
            <mxPoint x="540" y="520" as="sourcePoint" />
          </mxGeometry>
        </mxCell>
        <mxCell id="q96BogFGDi_03SNaMqHn-26" value="3. PrÃ¤sentation" style="rounded=0;whiteSpace=wrap;html=1;" vertex="1" parent="1">
          <mxGeometry x="480" y="440" width="120" height="40" as="geometry" />
        </mxCell>
        <mxCell id="q96BogFGDi_03SNaMqHn-28" value="User" style="shape=umlActor;verticalLabelPosition=bottom;verticalAlign=top;html=1;outlineConnect=0;" vertex="1" parent="1">
          <mxGeometry x="525" y="310" width="30" height="60" as="geometry" />
        </mxCell>
        <mxCell id="q96BogFGDi_03SNaMqHn-30" value="Speicher" style="rounded=0;whiteSpace=wrap;html=1;" vertex="1" parent="1">
          <mxGeometry x="160" y="520" width="440" height="40" as="geometry" />
        </mxCell>
      </root>
    </mxGraphModel>
  </diagram>
</mxfile>
